name C:\Users\u0101727\Documents\MyRepositories\upper-imu-dc\OpenSim\subject0\MA\MA_Splines\angle_in_n6_dof6_3.mot
datacolumns 7
datarows 67
range 375.01000000 375.67000000
endheader 
time	clav_prot	clav_elev	scapula_abduction	scapula_elevation	scapula_upward_rot	scapula_winging	
        375.01000000	        -49.02793530	         11.96046367	         -8.18913718	          7.08700750	         70.04131325	          2.02322237	
        375.02000000	        -42.60353533	         11.96046367	         -8.18913718	          7.08700750	         70.04131325	          2.02322237	
        375.03000000	        -36.17913537	         11.96046367	         -8.18913718	          7.08700750	         70.04131325	          2.02322237	
        375.04000000	        -29.75473540	         11.96046367	         -8.18913718	          7.08700750	         70.04131325	          2.02322237	
        375.05000000	        -23.33033544	         11.96046367	         -8.18913718	          7.08700750	         70.04131325	          2.02322237	
        375.06000000	        -16.90593547	         11.96046367	         -8.18913718	          7.08700750	         70.04131325	          2.02322237	
        375.07000000	        -49.02793530	         16.86370047	         -8.18913718	          7.08700750	         70.04131325	          2.02322237	
        375.08000000	        -42.60353533	         16.86370047	         -8.18913718	          7.08700750	         70.04131325	          2.02322237	
        375.09000000	        -36.17913537	         16.86370047	         -8.18913718	          7.08700750	         70.04131325	          2.02322237	
        375.10000000	        -29.75473540	         16.86370047	         -8.18913718	          7.08700750	         70.04131325	          2.02322237	
        375.11000000	        -23.33033544	         16.86370047	         -8.18913718	          7.08700750	         70.04131325	          2.02322237	
        375.12000000	        -16.90593547	         16.86370047	         -8.18913718	          7.08700750	         70.04131325	          2.02322237	
        375.13000000	        -49.02793530	         -7.65248351	          1.54938583	          7.08700750	         70.04131325	          2.02322237	
        375.14000000	        -42.60353533	         -7.65248351	          1.54938583	          7.08700750	         70.04131325	          2.02322237	
        375.15000000	        -36.17913537	         -7.65248351	          1.54938583	          7.08700750	         70.04131325	          2.02322237	
        375.16000000	        -29.75473540	         -7.65248351	          1.54938583	          7.08700750	         70.04131325	          2.02322237	
        375.17000000	        -23.33033544	         -7.65248351	          1.54938583	          7.08700750	         70.04131325	          2.02322237	
        375.18000000	        -16.90593547	         -7.65248351	          1.54938583	          7.08700750	         70.04131325	          2.02322237	
        375.19000000	        -49.02793530	         -2.74924671	          1.54938583	          7.08700750	         70.04131325	          2.02322237	
        375.20000000	        -42.60353533	         -2.74924671	          1.54938583	          7.08700750	         70.04131325	          2.02322237	
        375.21000000	        -36.17913537	         -2.74924671	          1.54938583	          7.08700750	         70.04131325	          2.02322237	
        375.22000000	        -29.75473540	         -2.74924671	          1.54938583	          7.08700750	         70.04131325	          2.02322237	
        375.23000000	        -23.33033544	         -2.74924671	          1.54938583	          7.08700750	         70.04131325	          2.02322237	
        375.24000000	        -16.90593547	         -2.74924671	          1.54938583	          7.08700750	         70.04131325	          2.02322237	
        375.25000000	        -49.02793530	          2.15399008	          1.54938583	          7.08700750	         70.04131325	          2.02322237	
        375.26000000	        -42.60353533	          2.15399008	          1.54938583	          7.08700750	         70.04131325	          2.02322237	
        375.27000000	        -36.17913537	          2.15399008	          1.54938583	          7.08700750	         70.04131325	          2.02322237	
        375.28000000	        -29.75473540	          2.15399008	          1.54938583	          7.08700750	         70.04131325	          2.02322237	
        375.29000000	        -23.33033544	          2.15399008	          1.54938583	          7.08700750	         70.04131325	          2.02322237	
        375.30000000	        -16.90593547	          2.15399008	          1.54938583	          7.08700750	         70.04131325	          2.02322237	
        375.31000000	        -49.02793530	          7.05722688	          1.54938583	          7.08700750	         70.04131325	          2.02322237	
        375.32000000	        -42.60353533	          7.05722688	          1.54938583	          7.08700750	         70.04131325	          2.02322237	
        375.33000000	        -36.17913537	          7.05722688	          1.54938583	          7.08700750	         70.04131325	          2.02322237	
        375.34000000	        -29.75473540	          7.05722688	          1.54938583	          7.08700750	         70.04131325	          2.02322237	
        375.35000000	        -23.33033544	          7.05722688	          1.54938583	          7.08700750	         70.04131325	          2.02322237	
        375.36000000	        -16.90593547	          7.05722688	          1.54938583	          7.08700750	         70.04131325	          2.02322237	
        375.37000000	        -49.02793530	         11.96046367	          1.54938583	          7.08700750	         70.04131325	          2.02322237	
        375.38000000	        -42.60353533	         11.96046367	          1.54938583	          7.08700750	         70.04131325	          2.02322237	
        375.39000000	        -36.17913537	         11.96046367	          1.54938583	          7.08700750	         70.04131325	          2.02322237	
        375.40000000	        -29.75473540	         11.96046367	          1.54938583	          7.08700750	         70.04131325	          2.02322237	
        375.41000000	        -23.33033544	         11.96046367	          1.54938583	          7.08700750	         70.04131325	          2.02322237	
        375.42000000	        -16.90593547	         11.96046367	          1.54938583	          7.08700750	         70.04131325	          2.02322237	
        375.43000000	        -49.02793530	         16.86370047	          1.54938583	          7.08700750	         70.04131325	          2.02322237	
        375.44000000	        -42.60353533	         16.86370047	          1.54938583	          7.08700750	         70.04131325	          2.02322237	
        375.45000000	        -36.17913537	         16.86370047	          1.54938583	          7.08700750	         70.04131325	          2.02322237	
        375.46000000	        -29.75473540	         16.86370047	          1.54938583	          7.08700750	         70.04131325	          2.02322237	
        375.47000000	        -23.33033544	         16.86370047	          1.54938583	          7.08700750	         70.04131325	          2.02322237	
        375.48000000	        -16.90593547	         16.86370047	          1.54938583	          7.08700750	         70.04131325	          2.02322237	
        375.49000000	        -49.02793530	         -7.65248351	         11.28790885	          7.08700750	         70.04131325	          2.02322237	
        375.50000000	        -42.60353533	         -7.65248351	         11.28790885	          7.08700750	         70.04131325	          2.02322237	
        375.51000000	        -36.17913537	         -7.65248351	         11.28790885	          7.08700750	         70.04131325	          2.02322237	
        375.52000000	        -29.75473540	         -7.65248351	         11.28790885	          7.08700750	         70.04131325	          2.02322237	
        375.53000000	        -23.33033544	         -7.65248351	         11.28790885	          7.08700750	         70.04131325	          2.02322237	
        375.54000000	        -16.90593547	         -7.65248351	         11.28790885	          7.08700750	         70.04131325	          2.02322237	
        375.55000000	        -49.02793530	         -2.74924671	         11.28790885	          7.08700750	         70.04131325	          2.02322237	
        375.56000000	        -42.60353533	         -2.74924671	         11.28790885	          7.08700750	         70.04131325	          2.02322237	
        375.57000000	        -36.17913537	         -2.74924671	         11.28790885	          7.08700750	         70.04131325	          2.02322237	
        375.58000000	        -29.75473540	         -2.74924671	         11.28790885	          7.08700750	         70.04131325	          2.02322237	
        375.59000000	        -23.33033544	         -2.74924671	         11.28790885	          7.08700750	         70.04131325	          2.02322237	
        375.60000000	        -16.90593547	         -2.74924671	         11.28790885	          7.08700750	         70.04131325	          2.02322237	
        375.61000000	        -49.02793530	          2.15399008	         11.28790885	          7.08700750	         70.04131325	          2.02322237	
        375.62000000	        -42.60353533	          2.15399008	         11.28790885	          7.08700750	         70.04131325	          2.02322237	
        375.63000000	        -36.17913537	          2.15399008	         11.28790885	          7.08700750	         70.04131325	          2.02322237	
        375.64000000	        -29.75473540	          2.15399008	         11.28790885	          7.08700750	         70.04131325	          2.02322237	
        375.65000000	        -23.33033544	          2.15399008	         11.28790885	          7.08700750	         70.04131325	          2.02322237	
        375.66000000	        -16.90593547	          2.15399008	         11.28790885	          7.08700750	         70.04131325	          2.02322237	
        375.67000000	        -49.02793530	          7.05722688	         11.28790885	          7.08700750	         70.04131325	          2.02322237	
